<svg id="f6b9f113-f3c9-4bef-bd8e-ff2df30d7406" data-name="Layer 1" xmlns="http://www.w3.org/2000/svg" width="194.44" height="29.3" viewBox="0 0 194.44 29.3"><title>nav-ct</title><path d="M141.35,127.56a5.62,5.62,0,0,0-.2-.87,4.82,4.82,0,0,0-.27-.68c0-.12-.09-.23-.14-.33l-.14-.32c-.11-.25-.21-.52-.3-.79a4.35,4.35,0,0,1-.19-1l-5.34,0a8.59,8.59,0,0,0-5.72,2.4,10.59,10.59,0,0,0-3.34,6.85v0q-.58,4.34,1.78,6.29a9,9,0,0,0,5.88,2q3.85,0,5.14-1.24a5.64,5.64,0,0,0,1.65-2.94c-.11.17-.23.35-.36.53s-.26.36-.41.55a7.63,7.63,0,0,1-2,1.67,6.86,6.86,0,0,1-3.53.76,4.07,4.07,0,0,1-3.68-1.88,10.13,10.13,0,0,1-1.52-4.17,13.16,13.16,0,0,1-.13-1.87,15,15,0,0,1,.12-1.72,2.34,2.34,0,0,1,0-.26l0-.26a11.14,11.14,0,0,1,1.66-4.22q1.26-1.91,4.44-1.91a6.93,6.93,0,0,1,2.89.54,8.4,8.4,0,0,1,2,1.18,7.51,7.51,0,0,1,1.1,1.05A3.73,3.73,0,0,0,141.35,127.56Zm6.93,9.06a.2.2,0,0,1-.16-.06.37.37,0,0,1-.06-.24l.84-6a3.74,3.74,0,0,0,0-1.54c-.11-.3-.44-.47-1-.48v0a1.36,1.36,0,0,0-.48.09,3.4,3.4,0,0,0-.53.23,6.66,6.66,0,0,0-1.1.85,13.77,13.77,0,0,0-1.05,1.11c-.2.23-.39.46-.56.68l-.47.59.94-6.93a.32.32,0,0,1,.21-.3,2.47,2.47,0,0,1,.49-.07l.6-.07a1.71,1.71,0,0,0,.72-.26,2.22,2.22,0,0,0,.56-.38,4.4,4.4,0,0,0,.56-.67l-1.95,0a3,3,0,0,0-2.37,1.11,4.86,4.86,0,0,0-1.18,2.59l-1.45,10.71a2.23,2.23,0,0,0,1.54-.61,2.4,2.4,0,0,0,.81-1.34.22.22,0,0,0,0-.08.15.15,0,0,0,0-.07l.34-2.51a2.23,2.23,0,0,1,.24-.49,9.08,9.08,0,0,1,.56-.76,6.78,6.78,0,0,1,.69-.73,2.74,2.74,0,0,1,.75-.49l.2,0,.18,0a.5.5,0,0,1,.45.17.67.67,0,0,1,.1.39c0,.06,0,.11,0,.16s0,.1,0,.14a.2.2,0,0,1,0,.07l-.63,4.66v0a.07.07,0,0,1,0,.05,1.87,1.87,0,0,0,.17,1c.14.3.47.45,1,.45a2,2,0,0,0,1.14-.35,4.3,4.3,0,0,0,.93-.79l.2-.25.17-.26-.78.45A1.36,1.36,0,0,1,148.28,136.62Zm6.42-.35-.15.12a.67.67,0,0,1-.14.09,1.22,1.22,0,0,1-.28.14.6.6,0,0,1-.24.06.35.35,0,0,1-.26-.13.77.77,0,0,1-.11-.5l.82-6a1.64,1.64,0,0,0,0-.23,1.5,1.5,0,0,1,0-.22,1.93,1.93,0,0,0-.21-.9.83.83,0,0,0-.8-.4.76.76,0,0,0-.21,0l-.22,0a2.69,2.69,0,0,0-.73.38,6.22,6.22,0,0,0-.69.52,5.65,5.65,0,0,0-.49.5c-.12.16-.21.27-.25.34v0a5.74,5.74,0,0,1,.83-.56,1.18,1.18,0,0,1,.52-.18.24.24,0,0,1,.23.12.48.48,0,0,1,0,.27l-.87,6.38a1.78,1.78,0,0,0,.18,1.08.89.89,0,0,0,.86.49h0a3.6,3.6,0,0,0,.9-.19A4,4,0,0,0,155,136l-.15.11Zm-.42-12.67a2,2,0,0,0-1,.28,1.43,1.43,0,0,0-.61,1.14v0c0,.06,0,.11,0,.16a.43.43,0,0,0,0,.16,2,2,0,0,0,.14.89.56.56,0,0,0,.57.4,2,2,0,0,0,.37-.05,2.69,2.69,0,0,0,.45-.16,2.55,2.55,0,0,0,.77-.52,1.45,1.45,0,0,0,.43-.88,1.31,1.31,0,0,0-.24-1.07A1.06,1.06,0,0,0,154.28,123.6Zm9.21,13.12a.27.27,0,0,1-.23-.12.53.53,0,0,1,0-.35,6.29,6.29,0,0,1,.08-.71c.06-.46.13-1,.2-1.51,0-.19,0-.38.08-.56a3.74,3.74,0,0,1,.09-.52c0-.33.08-.6.11-.82s0-.33,0-.34v0c0-.12,0-.22,0-.32a1.7,1.7,0,0,1,.06-.31c0-.11,0-.22.05-.32s0-.2,0-.3a4.62,4.62,0,0,0,0-1.54c-.09-.42-.42-.64-1-.64l-.2,0a.54.54,0,0,0-.21,0,3.35,3.35,0,0,0-1.23.65,11.82,11.82,0,0,0-1.15,1.07c-.34.36-.64.7-.9,1l-.52.67a.11.11,0,0,0,0-.06s0,0,0-.07l0-.15,0-.17a19.21,19.21,0,0,0,.17-2.1c0-.62-.21-.94-.69-.94a2.35,2.35,0,0,0-1.13.59,12.71,12.71,0,0,0-1.71,1.65,8.09,8.09,0,0,1,.8-.44,1.2,1.2,0,0,1,.48-.14.23.23,0,0,1,.19.08.44.44,0,0,1,0,.24l-1,7.35h.17l.18,0a2.91,2.91,0,0,0,1-.37,2.15,2.15,0,0,0,.72-.63l0-.09.06-.1c.1-.76.18-1.37.25-1.83s.14-1.07.25-1.83a3,3,0,0,1,.27-.4c.19-.25.42-.53.69-.83.11-.13.24-.26.37-.39s.26-.25.39-.36a2.43,2.43,0,0,1,.48-.35.92.92,0,0,1,.42-.13.52.52,0,0,1,.5.21.82.82,0,0,1,.1.44.49.49,0,0,1,0,.17l0,.17a.15.15,0,0,0,0,.07l-.69,4.87a1.26,1.26,0,0,0,.23,1.07,1.15,1.15,0,0,0,.87.35,1.64,1.64,0,0,0,.54-.1,3.26,3.26,0,0,0,.65-.29,3.61,3.61,0,0,0,.67-.54,4.56,4.56,0,0,0,.63-.77,6.38,6.38,0,0,1-.75.53A1.11,1.11,0,0,1,163.49,136.72Zm7.71-8.45a5.1,5.1,0,0,0-3.48,1.51,5.66,5.66,0,0,0-1.88,3.43v0a4.73,4.73,0,0,0,.54,3.18,2.82,2.82,0,0,0,2.57,1.3,5.16,5.16,0,0,0,3.47-1.52,5.59,5.59,0,0,0,2-3.5,4.62,4.62,0,0,0-.53-3.1A2.82,2.82,0,0,0,171.2,128.27Zm1.15,4.85c0,.29,0,.56-.08.82a3.66,3.66,0,0,1-.85,2,2.08,2.08,0,0,1-1.62.79,1.58,1.58,0,0,1-1.54-.8,4.43,4.43,0,0,1-.49-1.74,8.6,8.6,0,0,1,0-1.25c0-.41.08-.72.11-.95a3.58,3.58,0,0,1,.82-1.91,2.15,2.15,0,0,1,1.62-.79v0a1.56,1.56,0,0,1,1.54.92,5.13,5.13,0,0,1,.48,2C172.37,132.53,172.36,132.83,172.35,133.12Zm8.54-4.85a5.06,5.06,0,0,0-3.48,1.51,5.68,5.68,0,0,0-1.89,3.43v0a4.67,4.67,0,0,0,.55,3.18,2.8,2.8,0,0,0,2.57,1.3,5.18,5.18,0,0,0,3.47-1.52,5.68,5.68,0,0,0,1.95-3.5,4.68,4.68,0,0,0-.54-3.1A2.81,2.81,0,0,0,180.89,128.27Zm1.14,4.85c0,.29,0,.56-.08.82a3.66,3.66,0,0,1-.85,2,2.08,2.08,0,0,1-1.61.79,1.6,1.6,0,0,1-1.55-.8,4.26,4.26,0,0,1-.48-1.74,7.39,7.39,0,0,1,0-1.25c0-.41.07-.72.1-.95a3.65,3.65,0,0,1,.82-1.91,2.17,2.17,0,0,1,1.62-.79v0a1.56,1.56,0,0,1,1.53.92,5.31,5.31,0,0,1,.49,2A8.94,8.94,0,0,1,182,133.12Zm9.53-4.6a5.4,5.4,0,0,0-.86.44,8.59,8.59,0,0,0-.84.59c-.28.22-.55.45-.81.68s-.68.59-1,.88-.53.51-.71.67l.93-6.84v0a.31.31,0,0,1,.21-.29,2.37,2.37,0,0,1,.48-.08l.6-.06a1.86,1.86,0,0,0,.72-.26,2,2,0,0,0,.55-.38,3.89,3.89,0,0,0,.56-.67l-1.94,0a3,3,0,0,0-2.37,1.11,4.92,4.92,0,0,0-1.17,2.59l-1.45,10.71A2.21,2.21,0,0,0,186,137a2.45,2.45,0,0,0,.82-1.34.25.25,0,0,0,0-.08v-.07l.36-2.61a1.47,1.47,0,0,1,1.24.81,9.08,9.08,0,0,1,.63,1.56l0,.14.06.14a7.33,7.33,0,0,0,.57,1.44,1.13,1.13,0,0,0,1.09.62,2.22,2.22,0,0,0,1.24-.42,6.06,6.06,0,0,0,1.07-.93l.21-.3.19-.28a5.13,5.13,0,0,1-.8.43,1.46,1.46,0,0,1-.5.11,1.12,1.12,0,0,1-1.07-.54,5.52,5.52,0,0,1-.47-1.27c0-.1-.05-.2-.08-.3s0-.2-.07-.31a6.11,6.11,0,0,0-.64-1.46,2.09,2.09,0,0,0-1.5-.88c.21-.17.44-.35.7-.53s.53-.36.83-.55c.45-.28.94-.57,1.46-.85a16.83,16.83,0,0,1,1.55-.74l.69-.26.67-.24-2,0A2,2,0,0,0,191.56,128.52Zm27.32-3.34a9.26,9.26,0,0,0,3.15-2l-.46.06a5,5,0,0,1-.57.06l-.43.06-.45,0-1.21.11a5.61,5.61,0,0,1-.89,0v0l-1.83,0H208a9.59,9.59,0,0,0-5.22,1.55,6.6,6.6,0,0,0-3,4.72.3.3,0,0,0,0-.08.1.1,0,0,1,0-.05,12.74,12.74,0,0,1,2.34-2.87,5.44,5.44,0,0,1,3.73-1.13,5.23,5.23,0,0,1,4.23,2q1.66,2.05,1,6.67a7.72,7.72,0,0,1-.14.79c-.05.26-.12.53-.18.81a10.33,10.33,0,0,1-2,3.71,4.57,4.57,0,0,1-3.71,1.69,4.45,4.45,0,0,1-3.76-1.71,5.26,5.26,0,0,1-1-4.05,4.89,4.89,0,0,1,1-2.52,5.43,5.43,0,0,1,1.7-1.39,3.41,3.41,0,0,1,.78-.31,2.47,2.47,0,0,1,.67-.1,2.36,2.36,0,0,1,1.88.79,3,3,0,0,1,.46,2.46,4.37,4.37,0,0,1-.47,1.53,8.85,8.85,0,0,1-.74,1.16,1.42,1.42,0,0,0,.39-.14,3.27,3.27,0,0,0,.44-.24,5.07,5.07,0,0,0,1.11-1,2.92,2.92,0,0,0,.65-1.49,3.09,3.09,0,0,0-.76-2.64,3.35,3.35,0,0,0-2.53-1,4.83,4.83,0,0,0-3.89,1.67,7.3,7.3,0,0,0-1.69,3.78,5.26,5.26,0,0,0,0,1.06,5,5,0,0,0,.21,1.16,5.42,5.42,0,0,0,1.6,2.55,5.18,5.18,0,0,0,3.7,1.17,9.84,9.84,0,0,0,5.86-1.95c1.81-1.3,2.91-3.41,3.31-6.35a7.53,7.53,0,0,0-.38-4.18A7.07,7.07,0,0,0,212,127.2,6.19,6.19,0,0,0,210,126c-.61-.2-.91-.31-.91-.32l6.26,0A10.88,10.88,0,0,0,218.88,125.18Zm2.42,3.09a5.06,5.06,0,0,0-3.48,1.51,5.63,5.63,0,0,0-1.89,3.43v0a4.67,4.67,0,0,0,.55,3.18,2.8,2.8,0,0,0,2.57,1.3,5.18,5.18,0,0,0,3.47-1.52,5.68,5.68,0,0,0,1.95-3.5,4.68,4.68,0,0,0-.54-3.1A2.81,2.81,0,0,0,221.3,128.27Zm1.14,4.85c0,.29,0,.56-.08.82a3.66,3.66,0,0,1-.85,2,2.08,2.08,0,0,1-1.62.79,1.59,1.59,0,0,1-1.54-.8,4.26,4.26,0,0,1-.48-1.74,7.39,7.39,0,0,1,0-1.25c0-.41.07-.72.1-.95a3.65,3.65,0,0,1,.82-1.91,2.17,2.17,0,0,1,1.62-.79v0a1.56,1.56,0,0,1,1.53.92,5.13,5.13,0,0,1,.48,2A6.76,6.76,0,0,1,222.44,133.12Zm10.87,3a.55.55,0,0,1-.24,0,.48.48,0,0,1-.16-.07l-.07-.1a.11.11,0,0,1,0,0l1-7.65a2.39,2.39,0,0,0-1.48.48,1.7,1.7,0,0,0-.72,1.13l-.51,3.73a1.19,1.19,0,0,1-.12.38,1.85,1.85,0,0,1-.24.4,4.09,4.09,0,0,1-.53.59,6,6,0,0,1-.62.53,2.65,2.65,0,0,1-.51.29,1,1,0,0,1-.43.12c-.4,0-.63-.13-.69-.41a2.53,2.53,0,0,1,0-.92c0-.12,0-.23,0-.33s0-.21,0-.32l.55-4v0s0-.14,0-.3a2.07,2.07,0,0,0,0-.49,1.17,1.17,0,0,0-.24-.56.69.69,0,0,0-.62-.26h-.25a.64.64,0,0,0-.23.05,2.62,2.62,0,0,0-1,.48,4.92,4.92,0,0,0-1,1l0,0a2.38,2.38,0,0,1,.6-.3,1.9,1.9,0,0,1,.4-.11c.2,0,.32.08.35.24a1.74,1.74,0,0,1,0,.56l-.68,5a2,2,0,0,0,0,.26,1.11,1.11,0,0,0,0,.26,3.49,3.49,0,0,0,.17,1.36.88.88,0,0,0,.93.62h.16a3.29,3.29,0,0,0,1.45-.51,9.7,9.7,0,0,0,1.37-1l.51-.42a4.72,4.72,0,0,0,.45-.44l-.13,1a1.67,1.67,0,0,0,.1,1q.18.36.81.36a1.87,1.87,0,0,0,.32,0l.34-.09a3.54,3.54,0,0,0,.85-.51c.28-.22.56-.45.82-.68a9.41,9.41,0,0,0,.7-.74l.44-.51A4.94,4.94,0,0,1,234,136,1.76,1.76,0,0,1,233.31,136.16Zm9.87-7.89a2.45,2.45,0,0,0-1.7.75,17.11,17.11,0,0,0-1.55,1.62l-.5.6-.47.56c0-.1,0-.2,0-.31s0-.21,0-.31a13.27,13.27,0,0,0,.2-2.13c0-.52-.25-.78-.73-.78a1.2,1.2,0,0,0-.55.23,5.19,5.19,0,0,0-.76.57,3.42,3.42,0,0,0-.4.36l-.39.37a4.85,4.85,0,0,0-.43.51c-.12.16-.24.3-.34.42l0,0a2.64,2.64,0,0,1,.62-.46,1,1,0,0,1,.47-.15.33.33,0,0,1,.31.15.43.43,0,0,1,.07.29l-1,7.13a3.06,3.06,0,0,0,.72-.19,5.11,5.11,0,0,0,.66-.35,3.94,3.94,0,0,0,.55-.4,1.19,1.19,0,0,0,.22-.2l.55-4c.39-.47.72-.85,1-1.12a2.5,2.5,0,0,0,.23-.23l.24-.22a4.74,4.74,0,0,1,.58-.48,1,1,0,0,1,.45-.19.49.49,0,0,1,.52.31,1.65,1.65,0,0,1,0,.75,1.18,1.18,0,0,1,0,.2c0,.07,0,.13,0,.21s-.11.37-.18.55-.13.33-.19.46l-.06.12,0,.09.36-.32.39-.34.48-.41.43-.43a8.47,8.47,0,0,0,.82-.94,1.82,1.82,0,0,0,.39-.85,1.52,1.52,0,0,0-.17-1A.92.92,0,0,0,243.18,128.27Zm4.67.82a3.75,3.75,0,0,1,.87.09,2.53,2.53,0,0,1,.73.34,2.9,2.9,0,0,1,.44.38,6.46,6.46,0,0,1,.46.54s0,0,0-.05l0-.08c.09-.23.2-.53.35-.9a5,5,0,0,1,.73-1.18,5.47,5.47,0,0,1-.7.22,2.43,2.43,0,0,1-.55.08l-.35,0-.33-.07-.08,0h-.08l-.43-.09a3.5,3.5,0,0,0-.48-.06v0a5.32,5.32,0,0,0-2.18.45,2.24,2.24,0,0,0-1.22,1.94,2.36,2.36,0,0,0,.48,2.07,5.42,5.42,0,0,0,1.53,1.13l.54.26.51.24a5.38,5.38,0,0,1,.88.53.77.77,0,0,1,.28.74,1.52,1.52,0,0,1-.49,1,1.79,1.79,0,0,1-1.17.33,2.57,2.57,0,0,1-1.85-.67,4.4,4.4,0,0,1-1.05-1.46l-.15-.4c0-.13-.08-.27-.11-.4-.2,1.61-.18,2.61.07,3s.92.6,2,.6l.53,0a4.71,4.71,0,0,0,.53,0,4.59,4.59,0,0,0,2-.67,2.73,2.73,0,0,0,1.14-2.1,2.22,2.22,0,0,0-.53-2,6.1,6.1,0,0,0-1.59-1.12l-.67-.29-.63-.27a3,3,0,0,1-.79-.46.62.62,0,0,1-.25-.59,1.19,1.19,0,0,1,.4-.72A1.74,1.74,0,0,1,247.85,129.09Z" transform="translate(-57.06 -117.14)" style="fill:#ffffff"/><path d="M101.46,130.13c-.94-1.15-4.65-2.29-7.79-2.82a33.15,33.15,0,0,0-9.23-.25,5,5,0,0,0-3.91,3.87c-.68,2.49-.78,4,0,4.81s3,.88,4.55.84,3.64-.7,6.95-.49,6.11.38,7.3.29,2.95-.41,3-2.37S102.54,131.44,101.46,130.13Zm-3.83,5c-1.25-.07-3.58-.32-6-.36s-6,.81-7.6.78c-1.14,0-1.12-.32-.81-.62a5.48,5.48,0,0,1,3.66-1.58,16.55,16.55,0,0,0,3.46-.4c.78-.24,1.27-1.14,1.47-1.1a4,4,0,0,1,1.19.86,3.7,3.7,0,0,0,2.15.55c1.14.08,2.77-.27,4.25,1,.79.66.83.85.35.94A12.81,12.81,0,0,1,97.63,135.12Zm3.63-.81c-.49,1-1-.14-1.31-.71s-.57-1.23-2.86-2.41-6.45-.94-8.94-.66a7.47,7.47,0,0,0-5.31,3.27c-1,1.51-1.33,1.4-1.47.18a4.78,4.78,0,0,1,1.34-3.49c.94-1.14,3.31-1.92,8.62-1.47s8.45,1.54,9.49,2.48A2.06,2.06,0,0,1,101.26,134.31Z" transform="translate(-57.06 -117.14)" style="fill:#ffffff"/><path d="M106.84,130.36c1-.24,1.68-.39,1.68,0,0,.17-.65.33-1.19.93s-.59,1.38-1.21,1.65-.67.18,0,.42.24,1.93,1.13,2.62,1.53.74,1.43,1-1.26.07-2.61-.55-2.8-1.85-2.72-3.4S105.85,130.61,106.84,130.36Z" transform="translate(-57.06 -117.14)" style="fill:#ffffff"/><path d="M115.84,129.51a1.55,1.55,0,0,0-1.59-1.55c-1.2-.06-1.94.18-3.37,1.81a6,6,0,0,0-1.4,4.86c.19,2.27,1.86,3.25,2.78,3.21s1.36-.59,1.78-1.7.29-2.5,1-4S115.88,130.17,115.84,129.51Zm-1.31,1.42a7.16,7.16,0,0,0-1.13,2.59c-.16,1-.15,2.11-.52,2.52s-1.07.62-1.85-.32-.84-2.62.25-4.47c1.18-2,2.65-2,3.14-1.77S115,130.18,114.53,130.93Z" transform="translate(-57.06 -117.14)" style="fill:#ffffff"/><path d="M119.72,122.57a13.09,13.09,0,0,0-5.23,2.61c-2.08,1.72-3.68,3.24-5.11,3.53s-3.85-1.15-8.59-3a34.06,34.06,0,0,0-6.68-2c-.88-.14-.93-.47-.94-.59a15.69,15.69,0,0,1,.65-2.94c.41-1.55-.95-2.35-2.45-2.62a16.11,16.11,0,0,0-6.08-.12c-2.21.66-4.41,3.64-6.5,5.35-1.65,1.36-2.85,1.44-6.09,2.16a29.45,29.45,0,0,0-10.46,4c-3.6,2.25-5.09,4.26-5.18,4.91s.76.71,3.23.45,5.82-.72,7.57-.15c1.08.35.74.71.47.89a22.8,22.8,0,0,1-3.77-.08c-1.09,0-4.84.18-5.31.18a2.21,2.21,0,0,0-1.45,1c-.37.54-.37.84,0,.89a9.25,9.25,0,0,0,2.37-.05,1.83,1.83,0,0,1,1.08-.86,9.48,9.48,0,0,1,3.33.22,24,24,0,0,0,3.88-.2c.69,0,.74.22.54.49a2,2,0,0,1-1.26.94,39.46,39.46,0,0,1-5.18.13c-1.06,0-3.58.22-4,.71,0,0-.6.1-.27.84s1.26.38,2,0a7.45,7.45,0,0,1,3.46-.33c1.88.08,6.37,0,9.31,0s11.57.21,13.13.45,2.27.33,2.76,1.22.52,2.8,2.27,4.41c1.56,1.44,4.59,1.48,6.68,1.19s3.33-.85,3.28-1.21-2.31-.92-4.63-1.91-4.72-2.63-4.39-3.45,2.81-1.14,7-1.27a52.81,52.81,0,0,1,10.42,1c2,.32,1.19.82,3.45,3.46,1.74,2,4.27,3.84,4.59,3.5s-.33-.82-1-2.27c-1.11-2.29-1.17-4.89-.6-8.24a24.75,24.75,0,0,1,2.67-8.14c1.59-3.09,4.88-4.44,4.73-5S121.1,122.17,119.72,122.57Zm-39.57.25a21,21,0,0,1,3.77-2.4,15.34,15.34,0,0,1,5.17-1.12c1.54-.06,2.74.18,3.14.75s.28.94.13,2a4.23,4.23,0,0,0-.15,1.23c-.74-.05-2.39,0-4.31,0s-6.22.28-7.51.33C79.45,123.59,79.49,123.31,80.15,122.82ZM59.68,133.88a.77.77,0,0,1-.78-.77.78.78,0,0,1,.78-.78.77.77,0,0,1,.77.78A.76.76,0,0,1,59.68,133.88ZM67.27,128a7.83,7.83,0,0,0-.54,2.81c0,1.31,0,1.56-.54,1.56a27.48,27.48,0,0,0-3.8,0c-.85.14-.86-.32-.37-1.06a11.71,11.71,0,0,1,3.83-3.46C67.27,127.18,67.43,127.65,67.27,128Zm9.89,8.23c-.49.94-.79,1.51-1.85,1.81a17.61,17.61,0,0,1-5.1-.3c-.35-.14-.43-.85-.35-1.87a2.85,2.85,0,0,0-1-2.74c-1-.61-1.23-.52-1.23-1.72a3.39,3.39,0,0,1,1.92-3.14,6,6,0,0,1,5.19-.47,3.88,3.88,0,0,1,2.68,2.87A12.45,12.45,0,0,1,77.16,136.25Zm39.89-8.06a6.51,6.51,0,0,1-.49,3.26,41.82,41.82,0,0,0-1.43,5.72c-.3,1.68-1.37,2.06-.84,3.16.46.95.49,2.61.24,2.66s-1.15-1.56-1.48-2.22-.28-1.41-1.38-1.72A54.91,54.91,0,0,0,101,137.37c-4.91-.22-9.27.54-9.89,1.23s-.49,1.22.49,2.32,3.87,2.54,4.89,3.11.64.87.39,1a12.13,12.13,0,0,1-3.84,0c-1.24-.23-2.35-1.64-2.92-3.12a6.44,6.44,0,0,0-2-3.18,10.78,10.78,0,0,0-5.87-1.16c-2.22.19-3.69.91-3.9.79s.27-1.27.43-2.53a30,30,0,0,0,0-5.75,6.09,6.09,0,0,0-2.16-3.81c-1.14-1.1-.25-.87.35-.74a23.58,23.58,0,0,0,6.34,0,40.78,40.78,0,0,1,9.31.29c4.33.57,5.47,1.43,10.13,2.86s5.64.81,7.27.37,3.47-2.33,3.92-2.46,1.59.25,2.08-.24,3.53-2.3,3.58-2S116.85,126.52,117.05,128.19Z" transform="translate(-57.06 -117.14)" style="fill:#ffffff"/><path d="M75.61,130.5A3,3,0,0,0,73,129.05a3.45,3.45,0,0,0-3,.75c-.74.83-.93,2.07-.54,2.51a1.61,1.61,0,0,0,1.48.49,15.31,15.31,0,0,1,2.79.1c.89.13,1.62.3,1.91-.23A1.88,1.88,0,0,0,75.61,130.5Zm-1.48,2c-.61,0-.49-.53-1.65-.59s-1.48.61-2,.47a1,1,0,0,1-.44-1.62,2.32,2.32,0,0,1,1.48-.83A.94.94,0,0,0,72.4,131c1,.1,1.17-.43,1.22-.83.3-.11,1.13.34,1.36,1A.92.92,0,0,1,74.13,132.47Z" transform="translate(-57.06 -117.14)" style="fill:#ffffff"/><path d="M70.46,129.87a2.26,2.26,0,0,0,2,2.35,2.06,2.06,0,0,0,2.12-2" transform="translate(-57.06 -117.14)" style="fill:none;stroke:#ffffff;stroke-miterlimit:10"/></svg>