<svg id="e2292d53-6658-40a9-a8d5-657ba90b4a1c" data-name="Layer 1" xmlns="http://www.w3.org/2000/svg" width="100" height="100" viewBox="0 0 100 100">
  <g fill="#fff">
    <path d="M89.94,25.8l1.37-6.19,5.6,4.69a11.56,11.56,0,0,0-4.74,3.33c1.55,1.74,3.09,3.38,4.53,5.09a49,49,0,0,1,10.22,20.94A44.85,44.85,0,0,1,108,64.73a49.4,49.4,0,0,1-27.17,43.38,51.32,51.32,0,0,1-17.56,5.13A49.93,49.93,0,0,1,25.5,101.43,49,49,0,0,1,9.89,77,51,51,0,0,1,8,63a44.07,44.07,0,0,1,2.5-14.69A79.24,79.24,0,0,1,15,38.67a6.87,6.87,0,0,0,.85-3.45,15.5,15.5,0,0,1,3.3-10,7.36,7.36,0,0,1,8.62-2.64,3.18,3.18,0,0,0,3.06-.38,47.24,47.24,0,0,1,18.71-7.31,49.33,49.33,0,0,1,13.3-.37A52.07,52.07,0,0,1,75.41,17.4,49.44,49.44,0,0,1,89,25.07ZM74.83,81.91c2-.74,3.52-1.49,4-3.4A19.32,19.32,0,0,1,90.64,65a8.84,8.84,0,0,1,8.5.68,18.72,18.72,0,0,1,5.42,4.84c.52.69,1.08,1.34,1.88,2.32a48.41,48.41,0,0,0-3.24-28.14A47.47,47.47,0,0,0,91.43,28.27c-.82,1.34-1.48,2.49-2.23,3.59a1.55,1.55,0,0,0,0,1.84c1.65,2.84,3.26,5.7,5,8.5a4.7,4.7,0,0,0,1.39,1.11c1,.74,2.29,1.29,2.71,2.74H87.78l2.36-2.85c-1.31-1.77-2.08-3.91-3.73-5.66A23.08,23.08,0,0,0,84.22,39c-1.46,1.28-1.43,2.24-.06,3.66,1.12,1.17,2.2,2.38,3.43,3.72H76.69c1-1.34,2-2.46,2.77-3.67a3.82,3.82,0,0,0,.65-2c0-3.29-.1-6.58-.14-9.87,0-2-.29-4-2.35-5.5H86a8.82,8.82,0,0,0-2.78,5.38c-.29,2.13,0,4.93.56,6a39.16,39.16,0,0,0,5.72-10.14c-18.64-16.41-45.81-13.74-59-3,1.23,1.14,2.94.74,4.52,1.35a9.67,9.67,0,0,0-3.67,5.28,17.66,17.66,0,0,0-.8-1.83c-.89-1.53-2-2.72-4-2.82a4.18,4.18,0,0,0-4.15,2.44A13.29,13.29,0,0,0,21,31.75c-.47,2.45-.87,5,.36,7.34a6.26,6.26,0,0,0,5.45,3.74c2.25.06,3.05-1.93,3.74-3.73a2.3,2.3,0,0,1,1.77-1.61,1.88,1.88,0,0,1,1.08,2.43c-.26.81-.39,1.66-.72,2.44a6.93,6.93,0,0,1-9,4,11.41,11.41,0,0,1-6.84-6.18L16,38.53C9.64,48,6.09,63.17,11,78.38a48.3,48.3,0,0,0,16.58,23.75c.32-.67.53-1,.67-1.42,1.1-3.1,2.19-6.19,3.25-9.3a7.83,7.83,0,0,1,4.69-5.27,13.79,13.79,0,0,1,4.64-.74,22.54,22.54,0,0,1,9.69,2.26,7.23,7.23,0,0,0,8.18-1,66.26,66.26,0,0,1,5.82-3.74c.37-.23.75-.44,1.28-.75a33.54,33.54,0,0,1-3.67-.33c-3.27-.68-6.51-1.5-9.78-2.18-4-.82-7.88-1-11.17,2a11.62,11.62,0,0,0-12,2.07,2.81,2.81,0,0,1-2.58.47c-.18-2.75-.34-5.36-.53-8a15.73,15.73,0,0,1-.26-2.52c.49-4.79,3.09-8.08,7.38-10.11,3.59-1.69,7.53-1.91,11.33-2.7,2.89-.61,5.14-1.82,6-4.87.19-.7.39-1.4.58-2.11.68-2.59,2.17-3.54,4.85-3.21a45.74,45.74,0,0,0,7.09.6,4.38,4.38,0,0,1,4.38,2.56,75.25,75.25,0,0,1,6.06,12.64c1.47,4.43,2.39,8.92,1.3,13.6A7.63,7.63,0,0,0,74.83,81.91Zm-8.92,30.22c-2.28-4.8-4.49-9.45-6.72-14.1a23.29,23.29,0,0,0-1.72-3.19c-.33-.48-1.07-1-1.55-1s-1,.8-1.2,1.36a11.34,11.34,0,0,0-.55,2.47,37.77,37.77,0,0,1-4.28,13.08,12.18,12.18,0,0,0-.52,1.18A42.46,42.46,0,0,0,65.91,112.13Zm29.9-16.52c-3.71-3.55-7.11-6.83-10.55-10.07a19.86,19.86,0,0,0-2.72-2.12,3.64,3.64,0,0,0-3.79.07c-.68.61-.59,1.88.26,3.36.09.16.2.31.3.46q4.29,6.76,8.6,13.53c.25.39.54.75,1,1.36ZM43.41,63l.05.55c1,.3,1.93.62,2.9.91,2.2.64,3.77,1.84,4.21,4.27a2.57,2.57,0,0,0,1.06,1.59,7,7,0,0,0,2.87,1c3.28.25,6.58.37,9.87.45a2.3,2.3,0,0,0,2.45-2,5.79,5.79,0,0,0-2.68-6.11,9,9,0,0,0-5-1.45q-7,.09-13.9.29A9,9,0,0,0,43.41,63Zm26.68,47.5a9.69,9.69,0,0,0-.39-1c-1.08-2.17-2.18-4.33-3.27-6.5q-2.3-4.55-4.58-9.11c-.81-1.62-.85-3.28.49-4.56,3.94-3.77,8.78-5.26,13.13-.76a58,58,0,0,1,8.73,12.3,14.22,14.22,0,0,0,1.19,1.61l.41-.21a4.43,4.43,0,0,0-.19-1.34,55,55,0,0,0-8.22-12.65,12.17,12.17,0,0,0-5.12-3.31c-3.91-1.39-10.22,1.56-12.06,5.46A4.6,4.6,0,0,0,59.9,93c.47,2.68,2,4.94,3.24,7.29,1.62,3,3.21,6,4.82,9C68.39,110.12,68.81,111,70.09,110.52Zm-36.28-6.65-.26.65a11.11,11.11,0,0,0,1.5.76c1.71.61,3.45,1.16,5.18,1.73s3.31,1.21,5,1.64a3.49,3.49,0,0,0,4.43-2.43c.59-1.53,1.21-3,1.78-4.59a3.29,3.29,0,0,0,.11-.82l-8.11-2.39c-3.25-1-6.5-1.93-9.76-2.88-.62-.18-1.31-.47-1.77.44.64,1.26,1.86,1.31,3,1.51a12.25,12.25,0,0,1,3.13.83,2,2,0,0,1,1.35,2.44L35,100.39a10.81,10.81,0,0,0,1.5,1.7c1.21.82,2.5,1.54,3.78,2.32l.72-4.7c2.69.28,3,.62,3.37,2.91.11.73.28,1.45.42,2.18l.51.06a10.27,10.27,0,0,1,1-1.82,4.69,4.69,0,0,1,1.77-1.44,6,6,0,0,1,2.21.12c-.67,1.44-1.27,2.56-1.73,3.73a2.45,2.45,0,0,1-2.73,1.63,8.46,8.46,0,0,1-1.8-.3c-2-.57-4.07-1.21-6.11-1.8C36.57,104.59,35.19,104.24,33.81,103.87ZM100.44,82c-1.21-.26-1.23-1-.75-1.91a9.68,9.68,0,0,1,.92-1.13c.55-.72,1.09-1.45,1.81-2.43-2.29.24-2.85,3.06-5.2,2.51V77.19l5.14-4.32,2.19,2.46c.78-1.29-.16-1.91-.5-2.64s-.94-1.59-1.49-2.5C101,73,98.69,74.74,96.62,76.7s-2.2,2.39.11,4.35a5,5,0,0,1,.54.49,1.92,1.92,0,0,1,.13,2.65,24.15,24.15,0,0,1-2.46,2.69,2.67,2.67,0,0,1-3.52.2c-1.06-.79-2-1.69-3.11-2.59,1.27-.67,2.41-1.25,3.53-1.87.87-.48,1.18-1.11.52-2l-5.64,3.85C88.24,85.78,89.59,87,91,88.19a3.13,3.13,0,0,0,4.19.11c2.62-2.28,5.14-4.66,7.68-7,.2-.18.2-.57.29-.87l-.28-.22ZM49.22,60.14a7.58,7.58,0,0,0,1.05.29c2.73.15,5.48.21,8.2.43,3.07.26,6.2.11,9.14,1.37a16.27,16.27,0,0,0,2.91.61,17,17,0,0,0-5-7.18A3.26,3.26,0,0,0,63.88,55c-2.84-.21-5.7-.32-8.55-.5a2.24,2.24,0,0,0-2.5,1.41A8.86,8.86,0,0,1,49.22,60.14ZM94,66.65a21,21,0,0,0-3.41,1.25c-2.93,1.6-5.48,3.65-6.79,6.87-.72,1.75-.18,3.11,1.14,4.41a3.14,3.14,0,0,0,3.83.53,8.3,8.3,0,0,0,1.72-1c1.56-1.16,3.1-2.34,4.62-3.56,1-.83,2.07-1.68,3-2.61a2.88,2.88,0,0,0,.22-4.22A6.69,6.69,0,0,0,94,66.65ZM60.42,78.81A3.57,3.57,0,0,0,58,76.91a37.88,37.88,0,0,0-6.75-1.41,98.39,98.39,0,0,0-11.13,0,16.53,16.53,0,0,0-9.41,3,5.78,5.78,0,0,0-2.52,3.76c.3-.16.5-.21.59-.32a11.83,11.83,0,0,1,5.74-3.71c3.8-1.35,7.75-1.4,11.72-1.41A68.25,68.25,0,0,1,60.42,78.81ZM39.61,87.46a14.31,14.31,0,0,0-1.82.24c-2.25.57-3,1.52-3.23,4.2-.12,1.67,1.12,2.49,2.47,3,1.75.65,3.55,1.18,5.34,1.69s3.39.93,5.11,1.29c2.6.56,4.12-.85,3.93-3.48A5.81,5.81,0,0,0,48,89.58,18.54,18.54,0,0,0,39.61,87.46Zm22.58-6.19c2.71-.59,5.26-1.09,7.76-1.74a3,3,0,0,0,1.8-1.33A5.26,5.26,0,0,0,72,74.13c-1.82.05-3.51.18-5.18.11s-3.43-.34-5.24-.54C62.51,76,63.05,76.06,62.19,81.27Zm10,6.27,0-.69a7,7,0,0,0-2-.32,14,14,0,0,0-3.87.88c-3.34,1.48-5.48,4.23-2.75,8.29,1.32,2,2.36,4.1,3.51,6.16.8,1.43,1.56,2.88,2.4,4.28.29.48.65,1.33,1.53.46-.44-.85-.84-1.71-1.31-2.53-1.75-3.06-3.47-6.12-5.3-9.13-1.6-2.63-.48-5.78,2.34-6.35,1.3-.27,2.62-.46,3.92-.69C71.18,87.8,71.7,87.66,72.23,87.54ZM71.6,92.1l.72,4.36C73.83,96,75,95,76.45,95.29c1.29.27,2.59.5,4.16.79a4.94,4.94,0,0,0-.55-.83c-2-1.72-4.06-3.48-6.16-5.12a5.5,5.5,0,0,0-2.32-1c-1.79-.32-3.28.81-3,2.45a23,23,0,0,0,1.57,4.61c.11.28.68.37,1,.55l.24-.33c-.43-.93-.92-1.84-1.26-2.8a5.6,5.6,0,0,1-.41-2.27c.07-1,.75-1.33,1.69-1.2a8.23,8.23,0,0,1,4.79,3.9C74.44,94.5,73.43,92.93,71.6,92.1Zm-38.43-18a9.69,9.69,0,0,0,1.95.14c2.6-.3,5.19-.67,7.78-1,1-.14,2.08-.31,3.18-.47A4.31,4.31,0,0,0,42.14,70C38.39,69.46,35.29,70.52,33.17,74.12ZM65.8,64.44c.28.25.39.42.54.48.46.16.93.28,1.39.42a4.35,4.35,0,0,1,3.34,4.06c.08,1.59-.77,2.31-2.59,2L69.87,69l-2-2.69a23.77,23.77,0,0,1-.21,3.32,20.63,20.63,0,0,1-1.1,2.86,27,27,0,0,0,3.28.44,2,2,0,0,0,2.27-2.4,13.3,13.3,0,0,0-.86-3.7A4.41,4.41,0,0,0,65.8,64.44Zm7.35,45.05.39.09a3.08,3.08,0,0,0,.53-.87,6.67,6.67,0,0,0-.86-4.89c-1.48-2.72-3-5.45-4.39-8.19C68,94,67.26,92.42,66.46,90.75c-.7,1-.78,1-.45,1.79.67,1.63,1.38,3.25,2.19,4.8,1.33,2.53,2.78,5,4.13,7.5a4.38,4.38,0,0,1,.59,3.5C72.81,108.66,73.06,109.1,73.15,109.49Zm4.06-1.5.59-.37c-.26-.63-.5-1.27-.78-1.89a30.87,30.87,0,0,1-1.93-4.48c-.22-.88.35-2,.45-2.94,0-.42,0-1.07-.31-1.24a1.4,1.4,0,0,0-1.24.26,2.16,2.16,0,0,0-.54,2.65c.86,2.27,1.72,4.53,2.66,6.77A5.09,5.09,0,0,0,77.21,108Zm6.86-3.94c.54-3.16-5-7.84-7.7-7.43.38,1.45,1.93,1.35,2.72,2.15s1.81,1.79,2.75,2.64S82.64,103.73,84.07,104.05Zm-1.79,1.09c.53-2.8-2-5.56-5.54-6.57-1,1-1,1-.5,2.18,1.3-1.08,2.4-.44,3.31.53a22.24,22.24,0,0,1,1.86,2.63ZM54.64,93c0-2-1.08-3.36-2.79-3.39.83,1.14,1.65,2.25,2.47,3.34C54.37,93,54.53,93,54.64,93Zm22.59-8.91C76.51,82.58,76,82.39,74,83c1,.44,2,.83,2.88,1.2C77,84.21,77.13,84.11,77.23,84.07ZM55.71,90.22A1.68,1.68,0,0,0,57,92.29C57.14,91.25,56.7,90.74,55.71,90.22Z" transform="translate(-8.04 -14.2)"/>
    <path d="M54.89,37.22l-3.78,2.4c.29-2.33.71-4.55.8-6.79s-.14-4.56-.24-7H55c-1.14,2.21,1,3.27,1.92,4.84,0-1.87,1-3.84-1-5.6l3.66-2.54a6.78,6.78,0,0,1-.32,1.86c-.89,1.54-.56,3.18-.5,4.8s.06,3.17.1,4.75c0,.74-.2,1.36-1,1.56s-1.18-.4-1.49-1C55.73,33,55,31.54,54.23,30.07c-.13-.24-.3-.45-.54-.8C53.13,32.1,53.55,35.78,54.89,37.22Z" transform="translate(-8.04 -14.2)"/>
    <path d="M38.77,29.23h3c.42-2,.29-2.73-.86-4.12l3.29-2.33c-.2,2.32-.47,4.48-.54,6.64s-.19,4.5,1.1,6.71h-4.5c1.28-1.38,2.39-2.86,1.63-5H38.57a7.23,7.23,0,0,0,1,5.09H34.78a4.49,4.49,0,0,0,1.85-4.8L35,30.46l1.54-.64c.64-1.7-.43-2.93-1.24-4.59,1.05.12,1.74.19,2.43.28l2.21.3C39.67,27,37.73,27.55,38.77,29.23Z" transform="translate(-8.04 -14.2)"/>
    <path d="M68.41,30.62c-.09,2.82-1.6,4.9-3.93,5.14-2.07.2-4.26-2.46-4.23-5.11a5.4,5.4,0,0,1,1.83-4.38,3.37,3.37,0,0,1,5,.48A5.66,5.66,0,0,1,68.41,30.62Zm-4-3.89c-2.32,1.22-2.88,5.22-1,7a1.3,1.3,0,0,0,2.06-.08C67.22,31.89,66.61,28,64.37,26.73Z" transform="translate(-8.04 -14.2)"/>
    <path d="M69.26,30.36a5,5,0,0,1,1.4-3.76,3.57,3.57,0,0,1,5.85.69,6.23,6.23,0,0,1-.33,6.85,3.39,3.39,0,0,1-5.34.39A5.5,5.5,0,0,1,69.26,30.36Zm6.53.18a21.33,21.33,0,0,0-1.38-3.16,1.25,1.25,0,0,0-2.24,0,5.21,5.21,0,0,0-.09,5.94c.77,1.12,1.7,1.2,2.46.08A17.8,17.8,0,0,0,75.79,30.54Z" transform="translate(-8.04 -14.2)"/>
    <path d="M49.36,27.58c.28,2.76-.57,5.72,1,8.58H45.94c1.81-2.29,2.75-3.65.59-10.9l4.68.56Z" transform="translate(-8.04 -14.2)"/>
    <path d="M65.18,69.34c-2.3-1.1-4.36-.15-6.4.54a5.17,5.17,0,0,1-4.92-1c-.83-.58-1.61-1.23-2.41-1.84.58-.57,1.26-1.14,1.83-1.81,2-2.26,4.59-2.41,6.87-.37C61.77,66.35,63.41,67.78,65.18,69.34Zm-9.76.19a10,10,0,0,1-.71-2.7,8.52,8.52,0,0,1,.92-2.41,5.34,5.34,0,0,0-3.07,2.66ZM59.36,69l3-.89-2.82-2.86Z" transform="translate(-8.04 -14.2)"/>
    <path d="M59.62,58c-2.11,1.72-4.52,1.34-6.89,1.34.62-1.93,1.78-2.85,3.6-2.86,2.25,0,4.51,0,6.76,0a2.66,2.66,0,0,1,2.24,1c1.06,1.24,2.12,2.48,3.11,3.86a9.48,9.48,0,0,0-5.25-1.48A4.06,4.06,0,0,1,59.62,58Z" transform="translate(-8.04 -14.2)"/>
    <path d="M87.2,78.81c-1.56,0-2.26-.55-2.2-1.65a5.87,5.87,0,0,1,.81-2.89A17.73,17.73,0,0,1,92,68.53a5.24,5.24,0,0,1,5.15.47,1.38,1.38,0,0,1,.31,2.08,12,12,0,0,1-2.09,2.24C93.28,75,91.12,76.5,88.93,78A8.39,8.39,0,0,1,87.2,78.81Zm8.46-9.5c-.86-.56-1.4-.58-2,0-2.55,2.23-5.14,4.43-7.9,6.81l.38,1.7c2.93-2.46,5.63-4.71,8.31-7A11.75,11.75,0,0,0,95.66,69.31Z" transform="translate(-8.04 -14.2)"/>
    <path d="M39.83,89a25.54,25.54,0,0,1,7.62,1.62,4.59,4.59,0,0,1,2.7,3.63c.36,1.55-.39,2.48-2,2.4a16.21,16.21,0,0,1-3.89-.74c-2.26-.67-4.5-1.43-6.7-2.27-.93-.35-2-.78-1.93-2.11,0-1.11.8-1.86,2.28-2.2C38.57,89.17,39.29,89.09,39.83,89Zm-3.52,2.7c5.57,1.87,11.07,3,12.61,2.59l-.2-1L37.58,90.5Z" transform="translate(-8.04 -14.2)"/>
    <path d="M70.42,78.47l-5.57.58-.12-.3,4.32-1.37c-2.09-.81-4.45-.26-5.56-2.15l7.39.7Z" transform="translate(-8.04 -14.2)"/>
    <path d="M36.25,72.87c1.91-1.89,4.3-1.28,6.65-1-1.08.21-2.15.45-3.24.61S37.39,72.74,36.25,72.87Z" transform="translate(-8.04 -14.2)"/>
  </g>
</svg>
