<svg id="becdcca7-5acf-4b5f-b25c-b85c2112dc70" data-name="Layer 1" xmlns="http://www.w3.org/2000/svg" width="322" height="174.65" viewBox="0 0 322 174.65">
  <title>CT-logo</title>
  <g>
    <path d="M322.57,141.27a30.22,30.22,0,0,1-4.66-2.86c-1.2-.9-2-3.53-2-5.33a5.5,5.5,0,0,0-1.8-4c-.91-.75-1.66-.68-1.66-1.06s.9-.82,2-1.2,1.95-2.1,2.25-3.38a4.78,4.78,0,0,1,2.41-2.85,14.9,14.9,0,0,0,3.23-2.26c.9-.9-.45-.68-1.13-.6A44.1,44.1,0,0,0,310,121.06c-4.14,2.1-5.57,4.73-5.72,7.59s1.88,5.93,6.17,9a23.58,23.58,0,0,0,11.26,3.84C323.09,141.57,323.17,141.42,322.57,141.27Z" transform="translate(-98.47 -72.79)" style="fill: #fff"/>
    <path d="M296.49,116.85c-5.86-4.5-20.74-8-29.9-9.17s-25.4-2.55-31.71.3-9.32,8.87-11,17.58-.6,11.43,3.46,13.38,12.77,1.2,18.33.45S266,138,274,138.94s17.28.6,20.59-.15,5-2.7,6.31-7.36S300.47,119.91,296.49,116.85ZM293,135c-.38.38-7.44.6-12.55,0a139.39,139.39,0,0,0-16.38-1.13c-5.79,0-11.72,1.5-20.74,2.25s-10,0-10.15-.22,2.93-3.76,6.77-5.11,12-2.26,14.65-2.33,6.53-.83,7.81-2.18,1.65-2.4,2.41-2.4c.53,0,1.44,2.14,4.51,3.38s8,1.5,12.47,2c3.53.42,7.21,1.2,9.24,2.78S293.41,134.58,293,135Zm4.65-5.41a11.8,11.8,0,0,1-1.72,4.06c-.3.37-.91.37-1.28-.31s-4.28-6.91-8.34-9.77S274,119,267.94,118.88s-18.41-.23-23.67,2.55a39.7,39.7,0,0,0-11.12,9.47c-1.58,1.95-3.08,3.91-3.68,4.13s-2.63-3.53-.68-10,7.29-9.32,12.7-10a91.42,91.42,0,0,1,20.37-.67c8,.75,21.49,2.48,26,4.28s7,3.15,8.48,5A6.48,6.48,0,0,1,297.69,129.55Z" transform="translate(-98.47 -72.79)" style="fill: #fff"/>
    <path d="M197.16,113.77a12.57,12.57,0,0,0-8,2.48c-3.6,2.74-3.46,7.89-2.79,9.09a3.69,3.69,0,0,0,3.54,1.8,40.62,40.62,0,0,1,7.13-.45c2,.15,6.84,1.43,8.87,1.06s2.78-2.11,3.08-3.83a7.93,7.93,0,0,0-1.8-6.47C205.35,115.2,199,113.84,197.16,113.77Zm-6,11.44a2.94,2.94,0,0,1-2.59-2,4,4,0,0,1,.34-2.7c.16-.28.56-.51.78-.4s.45,1.3.79,1.92a2.84,2.84,0,0,0,1.47,1.3c.39.05,1.29.45,1.29.67A2.15,2.15,0,0,1,191.11,125.21Zm1.77-2.58c-1.36-1.13-1.89-2.09-1.43-3.15s1-1.51,1.5-1.36c.31.09.08,1.21,1.05,2a6,6,0,0,0,3.31,1.12c1.13.08,2.93-.07,3.53-1s.83-1.27,1.28-1.27,1.35.3,1.35,1.73-1.58,2.92-4.06,3.22S194.23,123.76,192.88,122.63Zm10.82,3.08c-1.88.08-2.79-.67-2.56-1s1.18-.52,1.88-.9a2.36,2.36,0,0,0,1.33-1.65c.05-.57.1-1.13.4-1.13.47,0,1.35,1,1.35,1.73S205.57,125.64,203.7,125.71Z" transform="translate(-98.47 -72.79)" style="fill: #fff"/>
    <path d="M339.93,110.31a12.82,12.82,0,0,0-7.22,3.68c-2.55,2.48-7.36,6.92-7.59,15.11-.25,9.17,3.68,12.69,5.56,13.9s4.29,2.18,6.24,1.5,3.31-4,4.58-7,1.66-7.36,1.81-8.41a35,35,0,0,1,3-8.19c1.29-2.63,1.73-5.41,1-7.29S342.57,109.87,339.93,110.31Zm2.85,9.77a60,60,0,0,0-3.16,7.59c-.45,1.8-1.05,6-1.65,8s-1.28,3.84-2.63,4.21-5.11-1.88-6-5.86A15.65,15.65,0,0,1,331.81,122c2.78-3.84,6.46-6.61,8.34-6.77s2.93.31,3.38,1.13S343.46,118.88,342.78,120.08Z" transform="translate(-98.47 -72.79)" style="fill: #fff"/>
    <path d="M373.29,92.2c-.6-1.21-2.11-1.8-6.61-1.8s-15.33,4.2-19.84,7.21S333,109,330,110.83a12.57,12.57,0,0,1-12,.91c-3.73-1.54-13.41-5.71-23.75-9.62-11.12-4.21-21.72-6.1-23.44-6.61-3-.91-2.11-3-1.51-5.11s.91-4.51,1.81-8.41-2.34-6.31-5.41-6.92c-4.52-.9-9.32-1.2-16.23-2.11S238.94,74.77,235,77.77,224.51,87.69,220.3,91.6s-7.51,4.81-11.12,6-13.72,1.78-31,8.41c-25.39,9.78-32.46,21.65-33.66,23.45s-.75,3.76,4.51,3.16c4.27-.49,15.33-1.8,22.84-2,6.35-.14,9.32.3,11.72,3-3.9,1.2-26.45,1.2-30.65,1.2a6.93,6.93,0,0,0-6.92,4.51c-.9,2.11.3,2.4,1.21,2.4s7.21-.3,8.11-1.2a5.71,5.71,0,0,1,4.21-2.1c2.1,0,8.11.6,12,.6s8.72-.3,13.83-.3c.6,5.41-11.42,5.71-16.53,5.71s-14.73,0-18.94,2.1-.6,4.51,1.2,3.91a29.92,29.92,0,0,1,8.42-1.8c5.41-.61,78.14,0,86.26,1.5s8.12,3.91,9.32,6.91,1.2,7.52,7.21,12.32c7.94,6.36,25.55,4.21,30.66,2.71s3.61-3,1.8-3.91-4.21-1.8-12-4.21-17.43-9.91-18.34-13.22c3.61-4.51,24-4.81,33.67-4.51s21.34,2.41,31.55,4.81c8.12,13.83,17.44,20.74,20.74,22.54s4.81-.3,1.21-4.21-4.51-10.21-5.11-17.13,2.1-26.15,8.41-38.77,13.83-16.53,16.23-18S373.89,93.4,373.29,92.2ZM222.56,93.59c1.35-1.35,10.48-8.68,19-11.16s18.94-2.25,20.85-1.69,4.29,1.8,4.06,5.3a39.87,39.87,0,0,1-1.12,7.33,1.28,1.28,0,0,1-1.7.9c-1-.23-15.1-.34-23.1.11s-17.7.9-18.37,1S221.2,94.94,222.56,93.59Zm-69.28,35.88c-1.06.6-2.11-.6-2.86-1.05s-.3-.75.15-1a7.33,7.33,0,0,1,3-.75C154.63,126.62,154.33,128.87,153.28,129.47Zm26.29-19.69c-.6,1-2.25,10.37-2.25,12.93s-.6,2.85-2.55,2.7-13.53-.14-14.43-.14-1.23-.24-.6-1.36a42.67,42.67,0,0,1,8.56-10.07A24.6,24.6,0,0,1,179,108.43C179.72,108.28,180.18,108.73,179.57,109.78Zm34.87,26.46c-1.35,8-5.71,8.86-8.42,9.47s-16.23-1.06-17.13-1.36-.7-.89-.6-1.95c.45-4.81-.3-6.16-.75-9.62s-4.51-5.86-5.71-6.16-1.2-1.05-1.35-1.8-.3-2.41.6-6.47c1.24-5.58,8.11-9.31,16.08-9.31s12.84,2.12,15.48,5.86S215.79,128.27,214.44,136.24ZM360.06,98.82c-.82.6-8.11,8.19-8.49,8.71a1.47,1.47,0,0,0-.22,1.73c.38.6.75,1.88.52,5.94s-2.4,8.11-4.13,12.62-2.55,11.35-3.08,15.18a11.35,11.35,0,0,1-2.71,6.39c-.53.52-.6.82-.45,1.27s.75,3,1.13,4.66.83,5.49.9,6.39-.45.75-.9.37a30,30,0,0,1-2.93-3.83,32,32,0,0,1-3.76-8.57c-1.65-.67-11.42-2.93-16.38-3.83a188,188,0,0,0-31.41-3.08c-13.22,0-22,2.63-24.42,3.61s-3.53,2-3.45,3.91,4.28,5.86,6.16,7.29,8.49,5.33,11.65,7.13,4.43,2.63,4.88,3.38-.6,1.51-1.73,1.66-8.19,0-12.1-.16-4.58-1-7.06-3.6-5.26-11.19-6.16-13.45a10.3,10.3,0,0,0-5-5,37.16,37.16,0,0,0-14.81-4.06c-7.59-.53-16.79,2.92-18,3.15s-1.25-.2-.82-1.42c1.65-4.81,1.72-12.55,1.87-15.86s.3-11.94-1.95-17.58-6.16-7.82-7.59-8.94-.45-1.13.3-1,1,.23,5.26.83,18.26-.23,23.37-.75,13.07-.23,24.94,1.12a150.88,150.88,0,0,1,26.6,5.72c4.06,1.27,15.86,6.08,22.77,7.13S324.52,115.8,328,114s11.12-6.46,12.7-7.36,5-.83,6.68-.6a62.92,62.92,0,0,1,12.48-8.11C361,97.47,360.89,98.22,360.06,98.82Z" transform="translate(-98.47 -72.79)" style="fill: #fff"/>
  </g>
  <path d="M138.8,210.08a16.79,16.79,0,0,0-.52-2.23,12.2,12.2,0,0,0-.7-1.73c-.11-.3-.23-.58-.35-.85s-.25-.55-.36-.81c-.28-.65-.54-1.33-.77-2a10.45,10.45,0,0,1-.48-2.53L122,200q-7.63,0-14.64,6.14t-8.54,17.53v.06q-1.5,11.12,4.56,16.1t15,5q9.84,0,13.14-3.17a14.36,14.36,0,0,0,4.21-7.52q-.42.66-.9,1.35c-.32.46-.67.93-1.07,1.41a19.09,19.09,0,0,1-5.12,4.27c-2.18,1.3-5.19,2-9,2q-6.33,0-9.41-4.82a26,26,0,0,1-3.89-10.65,32.48,32.48,0,0,1-.32-4.79,33.48,33.48,0,0,1,.3-4.41l.09-.66.09-.66a28.14,28.14,0,0,1,4.24-10.79c2.15-3.27,5.93-4.9,11.37-4.9a17.73,17.73,0,0,1,7.37,1.38,21.78,21.78,0,0,1,5,3,19.62,19.62,0,0,1,2.83,2.69A8.45,8.45,0,0,0,138.8,210.08Zm17.71,23.18a.54.54,0,0,1-.42-.17.89.89,0,0,1-.14-.6l2.13-15.27a9.22,9.22,0,0,0-.05-3.93c-.28-.79-1.11-1.2-2.5-1.24v.06a3.75,3.75,0,0,0-1.25.22,10.84,10.84,0,0,0-1.35.6,16.71,16.71,0,0,0-2.8,2.17,34.13,34.13,0,0,0-2.68,2.84c-.52.59-1,1.16-1.45,1.73s-.84,1.07-1.2,1.51l2.41-17.73a.8.8,0,0,1,.54-.74,5.72,5.72,0,0,1,1.25-.2l1.54-.16a5.06,5.06,0,0,0,1.83-.67,6,6,0,0,0,1.44-1,9.47,9.47,0,0,0,1.42-1.71l-5,.06a7.77,7.77,0,0,0-6.07,2.83,12.37,12.37,0,0,0-3,6.63l-3.72,27.4a5.68,5.68,0,0,0,3.93-1.57,6.2,6.2,0,0,0,2.08-3.43c0-.07,0-.14,0-.19s0-.12,0-.2l.87-6.42a4.18,4.18,0,0,1,.61-1.24,19,19,0,0,1,1.43-1.95,16.28,16.28,0,0,1,1.77-1.86,6.71,6.71,0,0,1,1.92-1.27l.51-.11a1.73,1.73,0,0,1,.45,0,1.29,1.29,0,0,1,1.16.44,1.74,1.74,0,0,1,.25,1l-.06.41a2.94,2.94,0,0,1-.05.35,1.49,1.49,0,0,1,0,.17l-1.62,11.92s0,.08,0,.14a.83.83,0,0,0,0,.13,4.66,4.66,0,0,0,.42,2.59,2.49,2.49,0,0,0,2.48,1.15,5.24,5.24,0,0,0,2.93-.91,11.16,11.16,0,0,0,2.36-2c.18-.22.34-.44.5-.66s.31-.44.45-.66c-.76.48-1.43.86-2,1.16A3.28,3.28,0,0,1,156.51,233.26Zm16.42-.91-.37.31-.37.24a4.32,4.32,0,0,1-.71.36,1.76,1.76,0,0,1-.62.14.84.84,0,0,1-.67-.33,2,2,0,0,1-.27-1.27l2.1-15.43a5.11,5.11,0,0,0,0-.58c0-.2,0-.39.05-.57a4.59,4.59,0,0,0-.54-2.29,2.09,2.09,0,0,0-2-1,2.67,2.67,0,0,0-.56.06l-.56.1a8.58,8.58,0,0,0-1.87,1,15.91,15.91,0,0,0-1.75,1.35,10.55,10.55,0,0,0-1.25,1.27,6,6,0,0,0-.64.88v.05a16.43,16.43,0,0,1,2.11-1.43,3.17,3.17,0,0,1,1.33-.44.6.6,0,0,1,.59.3,1.13,1.13,0,0,1,.1.69L164.83,232a4.47,4.47,0,0,0,.45,2.78,2.28,2.28,0,0,0,2.19,1.24h.11a8.31,8.31,0,0,0,2.3-.5c1-.32,2.31-1.59,3.9-3.79a3.53,3.53,0,0,0-.4.27ZM171.85,200a5.21,5.21,0,0,0-2.63.72,3.7,3.7,0,0,0-1.55,2.91v.06c0,.14,0,.28,0,.41a1.41,1.41,0,0,0,0,.41,5.29,5.29,0,0,0,.35,2.29,1.47,1.47,0,0,0,1.46,1,4.25,4.25,0,0,0,1-.13,6.53,6.53,0,0,0,1.16-.42,6.27,6.27,0,0,0,2-1.32,3.69,3.69,0,0,0,1.11-2.25,3.25,3.25,0,0,0-.63-2.73A2.73,2.73,0,0,0,171.85,200Zm23.57,33.56a.66.66,0,0,1-.59-.3,1.27,1.27,0,0,1-.13-.91,12.18,12.18,0,0,1,.19-1.82c.16-1.17.34-2.46.53-3.86.06-.47.13-1,.19-1.43s.14-.92.23-1.32c.12-.85.21-1.54.29-2.09s.11-.85.12-.88v0c0-.29.08-.57.11-.82a7.2,7.2,0,0,1,.16-.78c0-.29.08-.56.12-.82s.06-.52.1-.77a12.27,12.27,0,0,0,0-3.94c-.23-1.08-1.08-1.63-2.58-1.63a4.33,4.33,0,0,0-.53,0,2,2,0,0,0-.54.14,8.24,8.24,0,0,0-3.14,1.67,28.5,28.5,0,0,0-2.94,2.73c-.86.91-1.62,1.8-2.28,2.64s-1.11,1.41-1.34,1.7a.44.44,0,0,0,0-.13c0-.06,0-.12,0-.2s0-.24.05-.38l.06-.44a46.58,46.58,0,0,0,.45-5.36c0-1.6-.55-2.4-1.76-2.4a5.92,5.92,0,0,0-2.9,1.5,32.67,32.67,0,0,0-4.37,4.22,20.71,20.71,0,0,1,2.05-1.13,3.29,3.29,0,0,1,1.23-.36.5.5,0,0,1,.47.22.9.9,0,0,1,.08.61L176.23,236a3.15,3.15,0,0,0,.44,0,4,4,0,0,0,.46-.08,7.52,7.52,0,0,0,2.52-.94,5.65,5.65,0,0,0,1.84-1.6l.14-.24.14-.25c.27-2,.48-3.51.64-4.68s.37-2.74.64-4.69c0,0,.24-.37.71-1s1.05-1.35,1.74-2.12q.45-.49,1-1c.33-.33.67-.64,1-.94a7.31,7.31,0,0,1,1.22-.87,2.15,2.15,0,0,1,1.08-.34c.66,0,1.08.17,1.27.53a2.06,2.06,0,0,1,.26,1.12,1.7,1.7,0,0,1,0,.45l-.06.44a.57.57,0,0,0,0,.16l-1.75,12.45a3.2,3.2,0,0,0,.59,2.76,2.92,2.92,0,0,0,2.22.88,4.49,4.49,0,0,0,1.38-.25,9.34,9.34,0,0,0,1.67-.74,11.87,11.87,0,0,0,1.7-1.37,11,11,0,0,0,1.61-2,16.8,16.8,0,0,1-1.91,1.35A2.86,2.86,0,0,1,195.42,233.51Zm19.72-21.6a12.92,12.92,0,0,0-8.9,3.86,14.45,14.45,0,0,0-4.83,8.76v.05a12,12,0,0,0,1.4,8.13q2.06,3.33,6.57,3.33t8.88-3.89a14.53,14.53,0,0,0,5-9,12,12,0,0,0-1.38-7.93C220.54,213,218.29,211.91,215.14,211.91Zm2.92,12.4c0,.73-.11,1.43-.2,2.09a9.36,9.36,0,0,1-2.17,5,5.34,5.34,0,0,1-4.14,2,4,4,0,0,1-3.94-2,11,11,0,0,1-1.24-4.47,18.75,18.75,0,0,1,0-3.19q.15-1.55.27-2.43a9.12,9.12,0,0,1,2.09-4.88,5.51,5.51,0,0,1,4.14-2v.05a4,4,0,0,1,3.93,2.35,12.87,12.87,0,0,1,1.23,5.15A22.35,22.35,0,0,1,218.06,224.31Zm21.84-12.4a12.92,12.92,0,0,0-8.9,3.86,14.44,14.44,0,0,0-4.82,8.76v.05a12,12,0,0,0,1.4,8.13q2.06,3.33,6.58,3.33t8.87-3.89a14.48,14.48,0,0,0,5-9,12,12,0,0,0-1.37-7.93C245.3,213,243.06,211.91,239.9,211.91Zm2.93,12.4c-.05.73-.12,1.43-.21,2.09a9.28,9.28,0,0,1-2.17,5,5.32,5.32,0,0,1-4.13,2,4.05,4.05,0,0,1-3.95-2,11,11,0,0,1-1.24-4.47,18.75,18.75,0,0,1,.05-3.19q.15-1.55.27-2.43a9.13,9.13,0,0,1,2.1-4.88,5.47,5.47,0,0,1,4.13-2v.05a4,4,0,0,1,3.93,2.35,13.05,13.05,0,0,1,1.24,5.15C242.87,222.8,242.87,223.57,242.83,224.31Zm24.36-11.78a14.8,14.8,0,0,0-2.19,1.13,20.66,20.66,0,0,0-2.15,1.52c-.72.56-1.42,1.14-2.08,1.73-.91.77-1.74,1.52-2.48,2.25s-1.34,1.31-1.8,1.71l2.37-17.49v.06a.8.8,0,0,1,.53-.75,6.38,6.38,0,0,1,1.24-.19l1.54-.16a5.17,5.17,0,0,0,1.82-.66,5.77,5.77,0,0,0,1.43-1,9.05,9.05,0,0,0,1.41-1.71l-5,.06a7.73,7.73,0,0,0-6.05,2.83,12.45,12.45,0,0,0-3,6.63l-3.72,27.4a5.66,5.66,0,0,0,3.93-1.57,6.24,6.24,0,0,0,2.09-3.44,1.37,1.37,0,0,0,0-.19s0-.12,0-.19l.9-6.66a3.76,3.76,0,0,1,3.19,2.07,22.31,22.31,0,0,1,1.61,4c0,.1.05.22.08.35a1.94,1.94,0,0,0,.15.36,18.69,18.69,0,0,0,1.45,3.68,2.92,2.92,0,0,0,2.78,1.6,5.61,5.61,0,0,0,3.17-1.07,15,15,0,0,0,2.75-2.4l.54-.77c.19-.25.35-.49.49-.71a13.27,13.27,0,0,1-2.05,1.1,3.72,3.72,0,0,1-1.28.27,2.8,2.8,0,0,1-2.72-1.37A13.27,13.27,0,0,1,265,227.7a7.27,7.27,0,0,1-.2-.77c-.06-.26-.13-.52-.2-.77a14.67,14.67,0,0,0-1.64-3.74,5.27,5.27,0,0,0-3.82-2.26c.54-.44,1.13-.89,1.78-1.35s1.35-.93,2.12-1.4c1.16-.74,2.4-1.46,3.73-2.18s2.65-1.35,4-1.9q.93-.33,1.77-.66c.56-.22,1.13-.42,1.7-.6l-5.06.05A5.53,5.53,0,0,0,267.19,212.53ZM337.05,204a23.17,23.17,0,0,0,8.06-5.05c-.33,0-.72.09-1.17.16s-.94.13-1.46.17l-1.09.13c-.39.06-.77.1-1.14.14-1.08.11-2.12.2-3.1.28a17.06,17.06,0,0,1-2.29,0v.06c-1.62,0-3.18,0-4.69.05h-21a24.18,24.18,0,0,0-13.34,4A16.89,16.89,0,0,0,288.11,216a1.85,1.85,0,0,0,.1-.2.49.49,0,0,1,.11-.14,33.32,33.32,0,0,1,6-7.34q3.24-2.88,9.56-2.89a13.41,13.41,0,0,1,10.82,5.23q4.26,5.22,2.66,17.06c-.09.66-.21,1.33-.36,2s-.3,1.37-.47,2.07a26,26,0,0,1-5,9.49,11.67,11.67,0,0,1-9.49,4.32q-6.27,0-9.61-4.37a13.38,13.38,0,0,1-2.53-10.35,12.32,12.32,0,0,1,2.63-6.43,13.79,13.79,0,0,1,4.34-3.57,10,10,0,0,1,2-.8,7.06,7.06,0,0,1,1.71-.25,6,6,0,0,1,4.79,2c1.18,1.34,1.57,3.45,1.18,6.31a11.32,11.32,0,0,1-1.19,3.91,27.93,27.93,0,0,1-1.89,3,5.31,5.31,0,0,0,1-.35,10.46,10.46,0,0,0,1.13-.64,11.69,11.69,0,0,0,2.85-2.53,7.24,7.24,0,0,0,1.64-3.8,7.84,7.84,0,0,0-1.94-6.75,8.45,8.45,0,0,0-6.46-2.67,12.3,12.3,0,0,0-9.94,4.29,18.73,18.73,0,0,0-4.34,9.67,14.78,14.78,0,0,0-.09,2.69,13.68,13.68,0,0,0,.53,3,13.93,13.93,0,0,0,4.09,6.54q3.15,3,9.47,3a25.2,25.2,0,0,0,15-5q6.94-5,8.48-16.24.88-6.6-1-10.7a18.27,18.27,0,0,0-4.48-6.35,15.45,15.45,0,0,0-5-3,21,21,0,0,1-2.31-.83l16,.06A27.61,27.61,0,0,0,337.05,204Zm6.2,7.91a12.92,12.92,0,0,0-8.9,3.86,14.45,14.45,0,0,0-4.83,8.76v.05a12,12,0,0,0,1.41,8.13Q333,236,337.49,236t8.87-3.89a14.5,14.5,0,0,0,5-9,12,12,0,0,0-1.38-7.93Q348,211.91,343.25,211.91Zm2.92,12.4c0,.73-.11,1.43-.2,2.09a9.36,9.36,0,0,1-2.18,5,5.3,5.3,0,0,1-4.13,2,4,4,0,0,1-3.94-2,11,11,0,0,1-1.24-4.47,19.87,19.87,0,0,1,0-3.19c.1-1,.2-1.84.28-2.43a9.12,9.12,0,0,1,2.09-4.88,5.49,5.49,0,0,1,4.14-2v.05a4,4,0,0,1,3.93,2.35,13.22,13.22,0,0,1,1.23,5.15A19.88,19.88,0,0,1,346.17,224.31ZM374,232.07a2.12,2.12,0,0,1-.62-.08,1.92,1.92,0,0,1-.38-.19,2.33,2.33,0,0,1-.19-.25.3.3,0,0,1,0-.14l2.66-19.57a6.08,6.08,0,0,0-3.77,1.24,4.36,4.36,0,0,0-1.86,2.89l-1.29,9.55a3.49,3.49,0,0,1-.3,1,4.27,4.27,0,0,1-.63,1,10.19,10.19,0,0,1-1.33,1.52c-.53.5-1.06.94-1.59,1.35a11.24,11.24,0,0,1-1.32.75,2.69,2.69,0,0,1-1.08.3c-1,0-1.63-.35-1.79-1a6.62,6.62,0,0,1-.06-2.37c0-.29.07-.57.11-.83s.07-.53.11-.83L362,216V216c0-.1,0-.36.05-.77a5,5,0,0,0-.11-1.26,3,3,0,0,0-.6-1.44,1.83,1.83,0,0,0-1.59-.66c-.21,0-.43,0-.63,0a2,2,0,0,0-.6.14,6.82,6.82,0,0,0-2.61,1.21,12.8,12.8,0,0,0-2.58,2.54l.05.05a7.55,7.55,0,0,1,1.54-.77,5.61,5.61,0,0,1,1-.28c.51,0,.8.2.88.61a4.58,4.58,0,0,1,0,1.43l-1.74,12.84-.09.67a3.65,3.65,0,0,0,0,.66,9.39,9.39,0,0,0,.43,3.5,2.25,2.25,0,0,0,2.4,1.57h.39a8.78,8.78,0,0,0,3.72-1.29,25.59,25.59,0,0,0,3.51-2.51c.45-.36.89-.73,1.31-1.09s.79-.74,1.13-1.11l-.33,2.48a4.43,4.43,0,0,0,.25,2.61c.32.61,1,.91,2.08.91a3.35,3.35,0,0,0,.81-.11l.88-.22a9.68,9.68,0,0,0,2.16-1.3c.74-.57,1.44-1.14,2.11-1.73s1.27-1.3,1.79-1.91.9-1,1.12-1.29a14.22,14.22,0,0,1-3,2.07A4.93,4.93,0,0,1,374,232.07Zm25.26-20.16a6.3,6.3,0,0,0-4.36,1.9,46,46,0,0,0-3.95,4.15c-.44.52-.87,1-1.28,1.54s-.82,1-1.21,1.43c0-.25.07-.52.1-.8s.08-.54.11-.79a33.82,33.82,0,0,0,.49-5.45c0-1.32-.63-2-1.84-2a3.07,3.07,0,0,0-1.43.58,14.2,14.2,0,0,0-1.93,1.46,11.44,11.44,0,0,0-1,.9l-1,1a13.9,13.9,0,0,0-1.12,1.29c-.31.42-.6.78-.86,1.07l.05.06a7.41,7.41,0,0,1,1.59-1.19,2.86,2.86,0,0,1,1.2-.35.86.86,0,0,1,.78.35,1.07,1.07,0,0,1,.17.75L381.25,236a6.44,6.44,0,0,0,1.85-.5,10.74,10.74,0,0,0,1.69-.87,14.1,14.1,0,0,0,1.41-1,3.35,3.35,0,0,0,.56-.52l1.39-10.25c1-1.21,1.86-2.16,2.54-2.86.2-.18.41-.38.6-.58s.39-.39.6-.58a11.15,11.15,0,0,1,1.49-1.21,2.3,2.3,0,0,1,1.16-.5,1.23,1.23,0,0,1,1.32.8,4,4,0,0,1,.13,1.9,3.85,3.85,0,0,1-.1.53c0,.16-.07.34-.1.52-.13.48-.29,1-.46,1.41s-.34.85-.49,1.18c-.06.11-.1.21-.15.3s-.1.18-.15.25c.3-.25.61-.53.94-.82l1-.89c.41-.33.82-.68,1.21-1s.77-.74,1.12-1.11a22.18,22.18,0,0,0,2.09-2.39,4.88,4.88,0,0,0,1-2.18,4,4,0,0,0-.45-2.56A2.34,2.34,0,0,0,399.22,211.91ZM411.15,214a9.05,9.05,0,0,1,2.22.25,6.16,6.16,0,0,1,1.87.86,6.61,6.61,0,0,1,1.13,1c.38.4.78.86,1.19,1.37,0,0,0-.08,0-.14l.12-.19c.22-.59.53-1.36.91-2.31a12.49,12.49,0,0,1,1.85-3,16.31,16.31,0,0,1-1.79.57,6,6,0,0,1-1.4.19,6.25,6.25,0,0,1-.9-.05,6.44,6.44,0,0,1-.83-.17l-.21-.08-.22,0L414,212a10.87,10.87,0,0,0-1.22-.17v0a13.56,13.56,0,0,0-5.57,1.16q-2.61,1.15-3.12,4.95-.48,3.52,1.23,5.31a13.74,13.74,0,0,0,3.92,2.89l1.36.66,1.32.61a12.59,12.59,0,0,1,2.24,1.37,1.94,1.94,0,0,1,.73,1.87,3.84,3.84,0,0,1-1.25,2.56,4.62,4.62,0,0,1-3,.85,6.58,6.58,0,0,1-4.72-1.7,11.27,11.27,0,0,1-2.68-3.74q-.21-.5-.39-1a7,7,0,0,1-.27-1c-.52,4.11-.47,6.67.17,7.68s2.34,1.51,5.13,1.51l1.35,0c.46,0,.91,0,1.36-.08a11.74,11.74,0,0,0,5-1.73q2.37-1.45,2.91-5.37a5.56,5.56,0,0,0-1.36-5,15.41,15.41,0,0,0-4.06-2.87l-1.71-.74-1.62-.69a8.67,8.67,0,0,1-2-1.18,1.58,1.58,0,0,1-.64-1.51,3,3,0,0,1,1-1.85A4.5,4.5,0,0,1,411.15,214Z" transform="translate(-98.47 -72.79)" style="fill: #fff"/>
</svg>
